<?xml version="1.0" encoding="utf-8"?>
<!-- Generated by IcoMoon.io -->
<!DOCTYPE svg PUBLIC "-//W3C//DTD SVG 1.1//EN" "http://www.w3.org/Graphics/SVG/1.1/DTD/svg11.dtd">
<svg version="1.1" xmlns="http://www.w3.org/2000/svg" xmlns:xlink="http://www.w3.org/1999/xlink" width="120" height="120" viewBox="0 0 120 120">
	<path d="M37.5 45h15v15h-15zM60 45h15v15h-15zM82.5 45h15v15h-15zM15 90h15v15h-15zM37.5 90h15v15h-15zM60 90h15v15h-15zM37.5 67.5h15v15h-15zM60 67.5h15v15h-15zM82.5 67.5h15v15h-15zM15 67.5h15v15h-15zM97.5 0v7.5h-15v-7.5h-52.5v7.5h-15v-7.5h-15v120h112.5v-120h-15zM105 112.5h-97.5v-82.5h97.5v82.5z" fill="#000000" />
</svg>
