<?xml version="1.0" encoding="utf-8"?>
<!-- Generated by IcoMoon.io -->
<!DOCTYPE svg PUBLIC "-//W3C//DTD SVG 1.1//EN" "http://www.w3.org/Graphics/SVG/1.1/DTD/svg11.dtd">
<svg version="1.1" xmlns="http://www.w3.org/2000/svg" xmlns:xlink="http://www.w3.org/1999/xlink" width="120" height="120" viewBox="0 0 120 120">
	<path d="M60 0c-33.137 0-60 26.863-60 60s26.863 60 60 60 60-26.863 60-60-26.863-60-60-60zM95.632 95.632c-4.631 4.631-10.021 8.265-16.020 10.803-1.524 0.645-3.072 1.21-4.641 1.698v-8.992c0-4.727-1.621-8.203-4.863-10.43 2.031-0.195 3.896-0.469 5.596-0.82s3.496-0.859 5.391-1.523 3.594-1.455 5.098-2.373 2.949-2.109 4.336-3.574 2.549-3.125 3.486-4.98 1.68-4.082 2.227-6.68 0.82-5.459 0.82-8.584c0-6.055-1.973-11.211-5.918-15.469 1.797-4.688 1.601-9.785-0.586-15.293l-1.465-0.176c-1.016-0.117-2.842 0.312-5.479 1.289s-5.596 2.578-8.877 4.805c-4.648-1.289-9.473-1.934-14.473-1.934-5.039 0-9.844 0.645-14.414 1.934-2.070-1.406-4.033-2.568-5.889-3.486-1.856-0.918-3.34-1.543-4.453-1.875s-2.149-0.537-3.105-0.615-1.572-0.098-1.846-0.059-0.469 0.078-0.586 0.117c-2.187 5.547-2.383 10.645-0.586 15.293-3.945 4.258-5.918 9.414-5.918 15.469 0 3.125 0.274 5.986 0.82 8.584s1.289 4.824 2.227 6.68 2.1 3.516 3.486 4.98 2.832 2.656 4.336 3.574 3.203 1.709 5.098 2.373 3.691 1.172 5.391 1.523 3.564 0.625 5.596 0.82c-3.203 2.187-4.805 5.664-4.805 10.43v9.168c-1.769-0.527-3.513-1.149-5.227-1.874-5.999-2.538-11.389-6.172-16.020-10.803-4.631-4.631-8.266-10.021-10.803-16.020-2.625-6.206-3.956-12.804-3.956-19.611s1.331-13.405 3.956-19.611c2.538-5.999 6.172-11.389 10.803-16.020s10.021-8.266 16.020-10.803c6.206-2.625 12.804-3.956 19.611-3.956s13.405 1.331 19.611 3.956c6 2.538 11.389 6.172 16.020 10.803 4.631 4.631 8.265 10.021 10.803 16.020 2.625 6.206 3.956 12.804 3.956 19.611s-1.331 13.405-3.956 19.611c-2.538 5.999-6.172 11.389-10.803 16.020z" fill="#000000" />
</svg>
