<?xml version="1.0" encoding="utf-8"?>
<!-- Generator: Adobe Illustrator 16.0.0, SVG Export Plug-In . SVG Version: 6.00 Build 0)  -->
<!DOCTYPE svg PUBLIC "-//W3C//DTD SVG 1.1//EN" "http://www.w3.org/Graphics/SVG/1.1/DTD/svg11.dtd">
<svg version="1.1" id="Layer_1" xmlns="http://www.w3.org/2000/svg" xmlns:xlink="http://www.w3.org/1999/xlink" x="0px" y="0px"
	 width="858px" height="168px" viewBox="0 0 858 168" enable-background="new 0 0 858 168" xml:space="preserve">
<g>
	<path fill="#314C9C" d="M35.104,135V34.202h22.176V135H35.104z"/>
	<path fill="#314C9C" d="M153.182,135l-48.815-64.079V135H82.479V34.202h20.448l47.231,62.062V34.202h21.888V135H153.182z"/>
</g>
<g>
	<path fill="#9BA1A8" d="M412.119,104.761h-16.848V135h-22.176V34.202h41.183c24.048,0,38.591,14.255,38.591,34.847v0.288
		C452.87,92.665,434.727,104.761,412.119,104.761z M430.407,69.481c0-9.936-6.912-15.264-18-15.264h-17.136v30.815h17.567
		c11.088,0,17.568-6.624,17.568-15.264V69.481z"/>
	<path fill="#9BA1A8" d="M514.935,54.649V135h-22.175V54.649h-30.671V34.202h83.519v20.447H514.935z"/>
	<path fill="#9BA1A8" d="M563.606,135V34.202h22.176V135H563.606z"/>
	<path fill="#9BA1A8" d="M659.941,136.728c-31.104,0-53.423-23.183-53.423-51.838v-0.288c0-28.656,22.607-52.127,53.711-52.127
		s53.423,23.184,53.423,51.839v0.288C713.652,113.256,691.045,136.728,659.941,136.728z M690.469,84.601
		c0-17.28-12.672-31.68-30.527-31.68s-30.239,14.112-30.239,31.392v0.288c0,17.28,12.672,31.679,30.527,31.679
		s30.239-14.112,30.239-31.391V84.601z"/>
	<path fill="#9BA1A8" d="M804.084,135l-48.815-64.079V135h-21.888V34.202h20.447l47.231,62.062V34.202h21.888V135H804.084z"/>
</g>
<polygon fill="#314C9C" points="196,49 196,67 205,67 205,85 253,85 253,104 205,104 205,124 281,124 281,104 290,104 290,85 
	281,85 281,68 235,68 235,49 "/>
<polygon fill="#9BA1A8" points="281,68 308,68 308,83 338,83 338,104 308,104 308,122 347,122 347,143 272,143 272,124 281,124 
	281,104 290,104 290,85 281,85 "/>
<path fill="#314C9C" d="M281.693,46.161c0-6.332,0-13.94,0-20.27c-7.385,2.11-17.481,3.307-24.868,2.252
	c-17.939-3.166-35.114-9.638-51.996-2.252c0,6.329,0,13.938,0,20.27c7.387-4.222,22.001-3.308,29.389-2.252
	C252.157,47.073,263.756,51.435,281.693,46.161"/>
<path fill="#9BA1A8" d="M347.253,63.966c0-6.33,0-13.94,0-20.268c-7.385,2.11-17.481,3.306-24.868,2.251
	c-17.94-3.166-35.114-9.639-51.996-2.251c0,6.328,0,13.938,0,20.268c7.387-4.22,22.002-3.308,29.389-2.252
	C317.718,64.879,329.315,69.24,347.253,63.966"/>
</svg>
