<?xml version="1.0" encoding="utf-8"?>
<!-- Generated by IcoMoon.io -->
<!DOCTYPE svg PUBLIC "-//W3C//DTD SVG 1.1//EN" "http://www.w3.org/Graphics/SVG/1.1/DTD/svg11.dtd">
<svg version="1.1" xmlns="http://www.w3.org/2000/svg" xmlns:xlink="http://www.w3.org/1999/xlink" width="120" height="120" viewBox="0 0 120 120">
	<path d="M111.726 8.747l-0.472-0.474c-11.033-11.031-29.085-11.031-40.116 0l-25.559 25.563c-11.031 11.031-11.031 29.083 0 40.114l0.472 0.472c0.918 0.92 1.892 1.749 2.899 2.515l9.357-9.357c-1.090-0.644-2.124-1.415-3.060-2.351l-0.474-0.474c-5.99-5.988-5.99-15.735 0-21.725l25.562-25.56c5.99-5.99 15.735-5.99 21.725 0l0.474 0.472c5.988 5.99 5.988 15.737 0 21.725l-11.565 11.565c2.008 4.958 2.959 10.242 2.876 15.514l17.883-17.883c11.031-11.032 11.031-29.083-0-40.115zM73.95 45.578c-0.918-0.918-1.892-1.749-2.899-2.512l-9.357 9.355c1.090 0.644 2.124 1.415 3.060 2.351l0.474 0.473c5.99 5.99 5.99 15.735 0 21.725l-25.562 25.563c-5.99 5.989-15.735 5.989-21.725 0l-0.474-0.474c-5.988-5.991-5.988-15.735 0-21.725l11.565-11.565c-2.008-4.958-2.959-10.242-2.876-15.514l-17.883 17.883c-11.032 11.031-11.032 29.083 0 40.116l0.472 0.473c11.033 11.031 29.085 11.031 40.117 0l25.56-25.561c11.031-11.031 11.031-29.085 0-40.116l-0.472-0.472z" fill="#000000" />
</svg>
